# xmcd
# Track frame offsets:
# 150
# 5675
# 21340
# 37250
# 45162
# 51867
# 63757
# 70190
# 82005
# 88355
# 102715
# 116925
# 126822
# 132627
#
# Disc length: 1914 seconds
# Revision: 0
# Processed by: cddbd v1.4PL0 Copyright (c) Steve Scherf et al.
# Submitted via: VisiTrax 2.9.5.181 - For more info visit www.synapsa.com
#
DISCID=d007780e
DTITLE=Hobo Sting Band - Fiedel
DYEAR=1973
DGENRE=
TTITLE0=Borrita broested
TTITLE1=My uncle
TTITLE2=Forget me not
TTITLE3=The old man
TTITLE4=Down by the old green tree
TTITLE5=The drifter
TTITLE6=Popla waltz
TTITLE7=Ole slew foot
TTITLE8=Sweet gals rag
TTITLE9=Only a hobo
TTITLE10=There is a time
TTITLE11=Uncle Pen
TTITLE12=Fishers hornpipe
TTITLE13=Drunken sailor
EXTD=
EXTT0=
EXTT1=
EXTT2=
EXTT3=
EXTT4=
EXTT5=
EXTT6=
EXTT7=
EXTT8=
EXTT9=
EXTT10=
EXTT11=
EXTT12=
EXTT13=
PLAYORDER=
